/* XPM */
static char *_b4406ba43f749cbe6bd285af1ba9285OPgLkXPhi9oXtMoY[] = {
/* columns rows colors chars-per-pixel */
"50 50 250 2 ",
"   c #07070C",
".  c #09070D",
"X  c #06090C",
"o  c #0A090D",
"O  c #0C0807",
"+  c #14060C",
"@  c #1C060B",
"#  c #130A0D",
"$  c #1B0A0C",
"%  c #160807",
"&  c #070A11",
"*  c #0B0B12",
"=  c #0B0915",
"-  c #130C11",
";  c #1B0C11",
":  c #190814",
">  c #141113",
",  c #1A1212",
"<  c #191619",
"1  c #19110F",
"2  c #24050B",
"3  c #2A050C",
"4  c #230B0D",
"5  c #2B0B0C",
"6  c #2F0607",
"7  c #34050B",
"8  c #330C0C",
"9  c #3A0B0C",
"0  c #3A0709",
"q  c #28130D",
"w  c #35120C",
"e  c #3D120C",
"r  c #371A0D",
"t  c #230C12",
"y  c #2B0D12",
"u  c #230510",
"i  c #330D13",
"p  c #3A0A12",
"a  c #221414",
"s  c #2B1314",
"d  c #241A16",
"f  c #241B1B",
"g  c #2B1C1B",
"h  c #2B1817",
"j  c #321213",
"k  c #3B1413",
"l  c #331C15",
"z  c #3C1A12",
"x  c #351919",
"c  c #36221A",
"v  c #2B201D",
"b  c #16182A",
"n  c #0F132A",
"m  c #311D21",
"M  c #221B2E",
"N  c #2D2422",
"B  c #392825",
"V  c #383434",
"C  c #2C2C33",
"Z  c #430C0C",
"A  c #45090B",
"S  c #44130E",
"D  c #4B160D",
"F  c #541A0E",
"G  c #420B12",
"H  c #580A12",
"J  c #441212",
"K  c #4B1512",
"L  c #431B13",
"P  c #4C1B12",
"I  c #481D19",
"U  c #551C13",
"Y  c #551816",
"T  c #4A2519",
"R  c #5A2212",
"E  c #5B2B1B",
"W  c #572718",
"Q  c #59341D",
"!  c #5E250F",
"~  c #632C1A",
"^  c #642918",
"/  c #64331C",
"(  c #6B341B",
")  c #76371D",
"_  c #712B1A",
"`  c #462923",
"'  c #542D24",
"]  c #493529",
"[  c #583826",
"{  c #493934",
"}  c #573932",
"|  c #642E21",
" . c #6A2F21",
".. c #6C3521",
"X. c #663924",
"o. c #733C23",
"O. c #763A26",
"+. c #661019",
"@. c #3F403F",
"#. c #77411E",
"$. c #56473C",
"%. c #4E4134",
"&. c #67452D",
"*. c #7A4524",
"=. c #7A442B",
"-. c #7E4A2B",
";. c #764628",
":. c #694B37",
">. c #784836",
",. c #6E5136",
"<. c #775639",
"1. c #7E502A",
"2. c #35334F",
"3. c #2C3565",
"4. c #572C43",
"5. c #374170",
"6. c #3D4656",
"7. c #494942",
"8. c #584B43",
"9. c #585348",
"0. c #535451",
"q. c #665448",
"w. c #765A45",
"e. c #695E58",
"r. c #6F554B",
"t. c #5D6254",
"y. c #78685A",
"u. c #676356",
"i. c #51526A",
"p. c #5A6571",
"a. c #6F7271",
"s. c #8B332B",
"d. c #824C2C",
"f. c #814A27",
"g. c #85522D",
"h. c #88502D",
"j. c #834D33",
"k. c #8F4839",
"l. c #855133",
"z. c #8A5533",
"x. c #895739",
"c. c #97593C",
"v. c #9F4A34",
"b. c #96623E",
"n. c #83603F",
"m. c #A04236",
"M. c #885943",
"N. c #8C5A4E",
"B. c #886344",
"V. c #936345",
"C. c #9A6443",
"Z. c #966449",
"A. c #9A644A",
"S. c #9C6A4C",
"D. c #9D6945",
"F. c #976952",
"G. c #997359",
"H. c #89685A",
"J. c #A56C4C",
"K. c #AB6B4B",
"L. c #A46D56",
"P. c #AB7459",
"I. c #B7775B",
"U. c #B46E53",
"Y. c #87786A",
"T. c #937B6C",
"R. c #AC7863",
"E. c #B37B64",
"W. c #B67F6B",
"Q. c #B77D66",
"!. c #AA7E70",
"~. c #CD776E",
"^. c #C56B5C",
"/. c #928579",
"(. c #AA8869",
"). c #BB846C",
"_. c #B9836A",
"`. c #AB8775",
"'. c #BD8672",
"]. c #BD8A75",
"[. c #B79474",
"{. c #A4845C",
"}. c #C6896C",
"|. c #C58768",
" X c #C28B74",
".X c #CA8D73",
"XX c #C58A77",
"oX c #CA9076",
"OX c #CB937C",
"+X c #C6917D",
"@X c #D3967C",
"#X c #D7987A",
"$X c #D38975",
"%X c #DDA07F",
"&X c #4A5A8C",
"*X c #556392",
"=X c #6D7E85",
"-X c #5B74BC",
";X c #5369AE",
":X c #6674A9",
">X c #767FC8",
",X c #846D9A",
"<X c #837DC0",
"1X c #738492",
"2X c #6F89A7",
"3X c #6B89DA",
"4X c #769BF5",
"5X c #6D8BE5",
"6X c #7CA4FC",
"7X c #908D8D",
"8X c #A5998B",
"9X c #B09885",
"0X c #ABA696",
"qX c #B4A693",
"wX c #A8A28D",
"eX c #B1AFA7",
"rX c #CD9582",
"tX c #C99C86",
"yX c #D39B84",
"uX c #DB9C84",
"iX c #D59E8A",
"pX c #D99B87",
"aX c #E09B83",
"sX c #D6A18A",
"dX c #DAA28D",
"fX c #DBA288",
"gX c #DCA592",
"hX c #D9A793",
"jX c #D2B09A",
"kX c #E4A58B",
"lX c #E6A98B",
"zX c #E4AC95",
"xX c #EAAD93",
"cX c #E5AD99",
"vX c #E8AD99",
"bX c #EBB39C",
"nX c #E9B196",
"mX c #C8B6A6",
"MX c #F2B8A2",
"NX c #EDBCA3",
"BX c #D9CAB4",
"VX c #DAC7AB",
"CX c #E8D8BA",
"ZX c #829DF4",
"AX c #D5CFC4",
"SX c #E3D8C8",
"DX c #FDFEFD",
"FX c #F4F4F1",
"GX c #F4F1E8",
"HX c #F5ECCA",
/* pixels */
"o o o o o o > o X X O O v %.[.(.w.w.,.d # O O . o o o o # ; 8 T [ &.&.[ ] <.,.T q % o o X o o a k i ",
"o o o o o o * o X > 1 9.wXCX(.,.[.$.X X o # O   * O # @ @ 5 z T <.<.,.&.r &.w.<.} l a > > O o $ i i ",
"o o o o o O o o X 1 t.mXGXqX{.VXy.1 o X . ; # + . - @ k k z T [ :.:.<.[ q T &.,.<.&.h % o o o 1 i i ",
"$ o # o o o o > d %.eXSXCXVXCX[.q 1 o X o ; h - # ; @ 4 j T z ' X.:.[ Q e w Q Q ,.w.] r 1 o o O y j ",
"s $ # o o o > > 0.eXeXHXBXHX[.' $ # o o O # $ @ + % 4 $ 4 8 z 8 L T W Q Q P W Q ,.w.<.&.c O o > s i ",
"5 $ # # o > o d /.[.0XBXCX[.:.5 4 o o o O O @ @ 8 r q w e S K P P R &.x.F.<.Q ( ,.<.1.&.r 1 o # y i ",
"1 $ # # o - v u.wXwXBXVX(.c l s s O o O $ 5 e W X.1.x.x.=.O...X.&.<.G.tXhX[.G.M.n.,.Q ,.T q X # y y ",
"# 1 1 1 # o q y././.(.G.T $ O s q + t k L W X.=.g.V.S.P.E.R.L.S.L.E.yXnXMXVXhX_.n.1.Q Q T q O # y y ",
"% 4 4 $ # - { qX] ` ` ` a O O s @ $ k E ~ ~ / *.g.b.J.E.'.'.'.'.yXgXcXbXNXVXMXxX X<.E [ ' w o # y i ",
"Z Z Z Z p k 7X$.c 5 l < O   o 4 % $ 8 R ..~ / ;.d.C.P.).+X+XrXyXgXcXhXvXMXMXMXbXhXG.X.w e 5 O $ y y ",
"H H H H H H N.q.# N N # .   # $ o + 5 P / X.o.) d.b.L.).+XrXiXsXgXgXgXzXbXbXbXbXnX].Q k 9 J G J J u ",
"p p G 9 0 p } 7X# X o o o X - $ o # 4 S / #.;.*.g.C.L._.+X+XgXtXsXgXgXzXxXbXbXxXzX@X| 8 L U Y Y Y u ",
"% 4 5 4 @ 4 4 u.d o       X , O o # 4 Z / ;.*.d.z.D.P.W.rXrXiXdXrXgXdXvXbXbXbXvXnXsX[ w 9 k 7 k i u ",
"# ; a $ # 1 ; a.Y.1 X O O O t O O $ 4 J X.1.d.z.z.A.). XrXgXiXcXyXdXiXbXMXMXMXvXzXhX&.q $ # # # @ : ",
"o a a $ # # d Y.Y.g O     O ; o o $ @ 8 / -.*.g.z.C.I.|.rXcXgXcXrXrXrXvXMXMXbXvXvXiX;.5 $ O o o # $ ",
"# a s t 1 , B qXY.1 O X X O # o o + @ 5 W *.*.#.-.z.D.~.,XiXcXvXpXXXrXvXvXvXvXzXvXfX<.w q # o - - # ",
"# s x s a d V `.q.# . & . o o O O + @ 8 | -.-.#.*.=.x.Z.W.XXiXbXfX_.oXfXhXdXdXhXzXsXM.e 5 + $ ; : o ",
"- h l r d < $.qXq.# X o O o o o * # @ 5 / -.g.z.-.o.1.-.Z.L.}.kX%X_.#X.X@XyXyXhXzXsXX.k j x , # : * ",
"; l c r a d 9.Y.a o X X       . + # : 5 W *.g.g.;.&.;.z.V.J.C.|.|.K.|.|.OXtXrXtXsXsX' k z l - # t $ ",
"> l c h a < y.y.O     o X   . . + + @ 8 P R Q / E T Q <.B.C.z.J.I.K.J.z.l.F.G.G.(.'.I i s 1 o o y t ",
"# g c q < d Y.[ # o O & *     o @ @ @ 3 7 0 S P S 0 p z T W o.( K.K.#.R P E <.<.B.G.W y - = & - y s ",
", l l d < f 8X$.O o . & o *   + @ $ 5 8 7 k I S 6 3 @ @ 4 8 F ( K._.F 0 0 J ..>.V.(.} t * = * - s s ",
"- h l h a a /.] 4 : + * . . O + @ 5 P X.S 9 8 8 w S L T w z F g.|.#X>.| =.M.M.=.A.'.,.; # o * 1 y i ",
"# a j x s a { :.2 u + . o O o + @ p ..-.-.;.;.*.d.z.l.j.E E A j.@XlXU.C.Z.A.P.oXpX#Xw.s 4 # - # y i ",
"o - y x j x { r.z 3 $ + o O # % @ L o.f.d.V.A.A.S.S.Z.<.O.;.R o.|.lXpX}.+X'.$XfXfX#XH.] B c f h j j ",
"O * ; 4 4 { } r.' z + O @ + O @ 3 K O.=.f.x.A.F.L.F.Z.V.O.g.o.~ K.kXlXxXnXlXlXlXaX#X/.t.t.t.t.9.] j ",
"o # $ y h c $.[ &.:.@ O : + + @ 3 k ..d.f.z.A.R.R.!.R.Z.-.d...^ c.fXnXlXnXMXnXlX%X#X/.a.a.=Xa.a.$.i ",
"4 p G ` %.$.c c ] r.3 % @ 2 @ 2 3 7 W O.j.z.J.W.].].).Z.=.o.( U c.#XnXkXlXlXxXlXaX#X7Xa.1X1X1Xa.8.i ",
"0 H H ` $.$.N v ] :.c 6 3 2 2 3 3 3 J ^ o.d.A.Q.W.rXW.L...U F K A.@XvX$X$XlXlX#X#X@X7X1X2X2X7XT.q.i ",
"3 H +.Q $.t.] v { ` q.5 2 2 3 3 3 y 0 K ^ ) j.A.R.W.W.A.F =.R W A.OXvX#XK.#X#X#X$XXX=X2X2X7X7X(.>.j ",
"4 A F [ $.7.B r ` q B ` 3 2 2 2 u 3 3 p Y ^ ..j.N.R.E.O.K U K Y V.XXkX#XK.|.oX}.~.!.:X:X2X8X9X`.>.i ",
": 5 r @.7.@.v q k l + ; : + u 2 3 3 3 7 K F ^ ^ =.L.P.R 7 6 7 p ( U..XlX|.|..X).(.!.i.:X:X7X7XG.} s ",
"o + ; 2.p.&X2.= : y O O o X : 3 2 2 3 3 A U ( / O.x.P.=.7 2 3 9 E k.pXnXlXoX}.)._.G.M 6.p.e.$.} L y ",
"o o b *X3X-X2.= = s O   o O # 4 3 2 3 3 0 J ~ ) o.g.S.x.E 8 0 U L.gXzXxXzXsX#X.XQ.H.* = < > + $ 3 ; ",
"* = 5.5X4X-Xn = - # 1 o   X + 3 3 2 2 2 3 0 U ~ ..l.x.z.l.l.j.I.uX@XvXzXdXdXpX|.}.} - o   o   # 4 $ ",
"* b -X4X4X;Xn & o   - O X X o 2 2 6 2 2 3 3 9 F R -.) g.g.z.z.Q.kXaXkXvXiXpXyX}.XX` * o   o   o : # ",
"= 5.5XZX4X&X= & X   - # X X . @ 2 6 2 2 2 3 6 A Z ~ / -.*.*.A.C.v.v.m.U.rXrXyX XR., X X o o X o @ : ",
"n :X4XZX3X3.& & o o # $ o O O @ 2 2 2 2 2 2 2 7 e Z ~ =.( ( v.s.s.m.^.$X XpXyX}.w.o o o X o o o : # ",
"4.<XZX4X;Xn = & & . X   - O O @ 2 2 2 2 2 2 2 6 6 J U ~ W ^ N.~.~.~.$X$XOXpXrX_.d o X * o o * o : # ",
"4.:X>X-X5.= & & .   .   # , o + 2 2 2 2 2 2 2 2 6 P ~ ~ A A _ m.I.~.Q.~.#X@X+XN.o o o * X * o o + - ",
"p 4.2.3.n & . . &   .   . < $ @ 3 2 2 2 2 2 2 2 3 P ~ ^ | A A ^ ( s.c.}..XyX+Xc o o X * X X & X - + ",
"+ @ : =   . . &   & X . o + $ y 4 @ 2 2 2 2 2 2 3 P ( ^ =.O.) -.#.z.U.I.|.@X(.1 * X * X * X & & = # ",
"* . . = & & & . & X       O > a.s 3 2 2 2 2 2 2 3 D *.) ) g.z.z.b.K.J.I.#XOXw.1 o X * o o X X o + - ",
"* . &   = . .       *     o C 8Xx 2 2 2 2 2 2 @ 2 S =.z.f.h.C.P.}..X}._.oXtX,XN $ o X * * * & o * + ",
"o     . & . & * . X X * o n a./.} 2 2 2 u 3 3 2 2 e =.b.x.b.P._.oXrXsXOXXXiXAXN g > o o X & X * o # ",
"o X . & o X     . X o & * V 7Xu.' 2 @ @ 2 3 3 3 2 5 X.M.S.L.P.}.oXyXyXoXW.mXFX2.N f # o o X * o * # ",
"o o .     * * X X * & & C 6.7X0.j @ 2 @ 4 2 3 3 y 3 S >.b.J.L.E.Q.'.'.E. XSXDXa.N m h - o o o o = + ",
"X     . . X X o & o & M p.C a.u.4 @ @ 4 @ 2 2 3 7 i 0 P &.z.c.C.b.S.V.E.tXGXDX7XN g l g < > - o = + ",
"o   . o o O o o & & b p.0.b @.e.q $ @ 2 @ 2 3 3 7 7 0 A A U ^ O.>.Z._.yXNXDXDXeXC g d f f f < , ; - ",
"o X . * * o * * < M p.i.6.> 1 V h @ @ @ @ 2 3 7 7 0 A G A A >.E. XoXrXhXFXDXDXeXB M g v f f a g m g "
};
